<svg id="artwork" xmlns="http://www.w3.org/2000/svg" width="64" height="64" viewBox="0 0 64 64"><title>computer</title><rect x="16.25" y="25.5" width="8.5" height="18" rx="1.5" style="fill:#3e3ef4"/><rect x="27.75" y="18" width="8.5" height="25.5" rx="1.5" style="fill:#3e3ef4"/><rect x="39.25" y="10.5" width="8.5" height="33" rx="1.5" style="fill:#3e3ef4"/><path d="M60,4.5H4A3.5,3.5,0,0,0,.5,8V46A3.5,3.5,0,0,0,4,49.5H24.5v7H22.25a1.5,1.5,0,0,0,0,3h19.5a1.5,1.5,0,0,0,0-3H39.5v-7H60A3.5,3.5,0,0,0,63.5,46V8A3.5,3.5,0,0,0,60,4.5Zm-23.5,52h-9v-7h9ZM60.5,46a.5.5,0,0,1-.5.5H4a.5.5,0,0,1-.5-.5V8A.5.5,0,0,1,4,7.5H60a.5.5,0,0,1,.5.5Z"/></svg>