<?xml version="1.0" standalone="no"?>
<!DOCTYPE svg PUBLIC "-//W3C//DTD SVG 20010904//EN"
 "http://www.w3.org/TR/2001/REC-SVG-20010904/DTD/svg10.dtd">
<svg version="1.0" xmlns="http://www.w3.org/2000/svg"
 width="270.000000pt" height="27.000000pt" viewBox="0 0 270.000000 27.000000"
 preserveAspectRatio="xMidYMid meet">

<g transform="translate(0.000000,27.000000) scale(0.100000,-0.100000)"
fill="#00000" stroke="none">
<path d="M205 150 c-30 -60 -55 -112 -55 -115 0 -3 6 -5 13 -5 12 0 117 198
117 220 0 32 -27 -3 -75 -100z"/>
<path d="M2470 249 c0 -6 -11 -20 -26 -31 -30 -24 -29 -59 4 -73 13 -6 22 -18
22 -33 0 -19 -4 -21 -25 -16 -16 4 -25 2 -25 -5 0 -6 11 -17 25 -23 14 -6 25
-17 25 -25 0 -21 13 -15 48 22 39 43 39 49 7 79 -29 27 -34 58 -9 54 25 -4 28
19 5 27 -12 3 -21 13 -21 21 0 8 -7 14 -15 14 -8 0 -15 -5 -15 -11z m-4 -76
c-10 -10 -19 5 -10 18 6 11 8 11 12 0 2 -7 1 -15 -2 -18z m49 -62 c3 -5 1 -12
-5 -16 -5 -3 -10 1 -10 9 0 18 6 21 15 7z"/>
<path d="M358 163 c-3 -66 -4 -68 -30 -71 -38 -4 -37 -32 0 -32 47 0 63 28 60
101 -4 89 -26 91 -30 2z"/>
<path d="M430 145 c0 -69 3 -85 15 -85 9 0 15 10 15 26 0 23 3 25 43 22 35 -2
43 -7 45 -25 2 -13 9 -23 16 -23 17 0 16 162 -1 167 -6 2 -13 -6 -15 -19 -2
-19 -10 -23 -45 -26 -40 -3 -43 -1 -43 22 0 16 -6 26 -15 26 -12 0 -15 -16
-15 -85z m115 5 c4 -6 -12 -10 -39 -10 -25 0 -46 5 -46 10 0 6 18 10 39 10 22
0 43 -4 46 -10z"/>
<path d="M644 206 c-60 -51 -21 -146 58 -146 52 0 88 35 88 85 0 76 -87 112
-146 61z m79 -7 c43 -23 50 -66 17 -99 -27 -27 -46 -25 -76 5 -29 29 -26 58 8
88 24 20 23 20 51 6z"/>
<path d="M691 157 c-9 -11 -8 -17 4 -27 12 -10 16 -9 21 5 9 23 -10 40 -25 22z"/>
<path d="M830 145 c0 -69 3 -85 15 -85 12 0 15 13 15 58 l0 57 53 -58 c28 -32
58 -57 65 -57 8 0 12 24 12 85 l0 85 -80 0 -80 0 0 -85z m130 15 c0 -22 -3
-40 -7 -39 -5 0 -23 18 -42 40 l-33 39 41 0 41 0 0 -40z"/>
<path d="M1210 215 c0 -10 10 -15 30 -15 l30 0 0 -70 c0 -56 3 -70 15 -70 12
0 15 14 15 70 0 68 1 70 25 70 16 0 25 6 25 15 0 12 -14 15 -70 15 -56 0 -70
-3 -70 -15z"/>
<path d="M1580 145 c0 -50 4 -85 10 -85 6 0 10 25 10 55 0 30 4 55 9 55 4 0
28 -25 52 -55 24 -30 49 -55 56 -55 10 0 13 23 13 85 l0 85 -75 0 -75 0 0 -85z
m120 15 c0 -22 -1 -40 -3 -40 -2 0 -18 18 -36 40 l-32 40 36 0 c34 0 35 -1 35
-40z"/>
<path d="M1930 145 l0 -85 48 0 c50 1 72 12 90 47 19 35 14 63 -17 94 -24 24
-38 29 -75 29 l-46 0 0 -85z m102 38 c37 -33 15 -89 -37 -95 -30 -3 -30 -3
-33 55 -3 56 -3 57 24 57 15 0 36 -7 46 -17z"/>
<path d="M2110 215 c0 -8 5 -15 10 -15 6 0 10 -25 10 -55 0 -30 -4 -55 -10
-55 -5 0 -10 -7 -10 -15 0 -10 11 -15 35 -15 24 0 35 5 35 15 0 8 -4 15 -10
15 -5 0 -10 25 -10 55 0 30 5 55 10 55 6 0 10 7 10 15 0 10 -11 15 -35 15 -24
0 -35 -5 -35 -15z"/>
<path d="M1057 140 l-46 -80 95 0 c52 0 94 3 94 6 0 12 -84 154 -91 154 -4 0
-27 -36 -52 -80z m80 -10 l21 -40 -49 0 -50 0 23 40 c13 22 25 40 28 40 3 0
15 -18 27 -40z"/>
<path d="M1401 144 c-24 -41 -41 -77 -38 -80 2 -3 45 -3 95 -2 l90 3 -45 78
c-25 42 -48 77 -52 77 -4 0 -26 -34 -50 -76z m78 -16 l23 -38 -46 0 c-25 0
-46 3 -46 8 0 10 40 75 44 71 1 -2 13 -21 25 -41z"/>
<path d="M2257 143 l-45 -78 90 -3 c50 -1 93 -1 95 2 6 5 -80 156 -89 156 -3
0 -26 -35 -51 -77z m73 -5 c11 -18 20 -36 20 -40 0 -5 -20 -8 -45 -8 l-46 0
23 40 c13 22 24 40 26 40 1 0 11 -15 22 -32z"/>
<path d="M68 184 c-27 -13 -48 -31 -48 -39 0 -8 23 -26 50 -40 41 -21 50 -22
50 -10 0 8 -16 23 -35 32 l-36 17 36 18 c19 10 35 25 35 33 0 18 5 19 -52 -11z"/>
<path d="M2580 195 c0 -8 16 -23 35 -33 l36 -18 -36 -17 c-19 -9 -35 -24 -35
-32 0 -12 9 -11 50 10 28 14 50 32 50 40 0 8 -22 26 -50 40 -40 20 -50 22 -50
10z"/>
<path d="M1760 30 c0 -6 30 -10 70 -10 40 0 70 4 70 10 0 6 -30 10 -70 10 -40
0 -70 -4 -70 -10z"/>
</g>
</svg>
