<svg xmlns="http://www.w3.org/2000/svg" viewBox="0 0 32 32"><g id="moon_and_star" data-name="moon and star"><path d="M30,8.27a1,1,0,0,0-.8-.68L25.53,7,23.91,3.58a1,1,0,0,0-1.82,0L20.47,7l-3.62.55a1,1,0,0,0-.8.68,1,1,0,0,0,.23,1L18.93,12l-.63,3.84a1,1,0,0,0,.42,1,1,1,0,0,0,1.06.06L23,15.09l3.22,1.79a1.07,1.07,0,0,0,.49.12,1,1,0,0,0,1-1.16L27.07,12l2.65-2.72A1,1,0,0,0,30,8.27ZM25.28,11a1,1,0,0,0-.27.86l.38,2.31-1.91-1.05a1,1,0,0,0-1,0l-1.91,1.05L21,11.82a1,1,0,0,0-.27-.86L19.08,9.28l2.22-.34a1,1,0,0,0,.75-.56l.95-2,.95,2a1,1,0,0,0,.75.56l2.22.34Z"/><path d="M25.44,24A12.5,12.5,0,0,1,15.7,3.74,1.1,1.1,0,0,0,16,3.28a.2.2,0,0,1,0-.07A1.9,1.9,0,0,0,16,3s0,0,0,0a1,1,0,0,0-.36-.72,1,1,0,0,0-1-.14A14,14,0,0,0,8.46,4.2a1,1,0,0,0-.3,1.38A1,1,0,0,0,9,6a1,1,0,0,0,.54-.15,12,12,0,0,1,3.28-1.44A14.66,14.66,0,0,0,11,11.5,14.5,14.5,0,0,0,23,25.77,12,12,0,0,1,6.77,8.33,1,1,0,1,0,5.23,7.05,14,14,0,0,0,16,30a13.91,13.91,0,0,0,9.69-3.9.7.7,0,0,0,.13-.17,1,1,0,0,0,.62-.93A1,1,0,0,0,25.44,24Z"/></g></svg>